<?xml version="1.0" standalone="no"?><!DOCTYPE svg PUBLIC "-//W3C//DTD SVG 1.1//EN" "http://www.w3.org/Graphics/SVG/1.1/DTD/svg11.dtd"><svg t="1607594365350" class="icon" viewBox="0 0 1025 1024" version="1.1" xmlns="http://www.w3.org/2000/svg" p-id="1527" xmlns:xlink="http://www.w3.org/1999/xlink" width="200.1953125" height="200"><defs><style type="text/css"></style></defs><path d="M380.47409696 716.35374759C379.20372915 717.62413022 374.01942429 720.46542868 372.31776922 720.84213421L238.87493951 750.38291266 273.57062259 785.07858173 303.11140103 651.63575201C303.5083129 649.8428121 306.2666915 644.81250562 307.59977283 643.47942429L751.39516546 199.68403165C762.75740866 188.32180329 762.75740866 169.89997717 751.39516546 158.53773398 740.03292227 147.17550562 721.61109616 147.17550562 710.24886779 158.53773398L266.45347515 602.33312579C257.28297476 611.50362701 249.08934734 626.44585696 246.29721875 639.0585665L216.75644031 772.50141187C212.15806048 793.2734311 230.68010415 811.79547476 251.45212422 807.19708093L384.89495392 777.65630249C397.41191265 774.88536899 412.5093646 766.61107611 421.62040946 757.50004608L865.41578726 313.70466827C876.77803046 302.34242508 876.77803046 283.92059897 865.41578726 272.55836978 854.05355891 261.19612741 835.63173196 261.19612741 824.2694896 272.55836978L380.47409696 716.35374759ZM431.78537141 150.0160625L132.74873358 150.0160625C109.20631891 150.0160625 90.125 169.09933093 90.125 192.63979608L90.125 891.20478765C90.125 914.74720233 109.20826843 933.82852124 132.74873358 933.82852124L831.31372515 933.82852124C854.85613983 933.82852124 873.93747275 914.74525281 873.93747275 891.20478765L873.93747275 592.16814985 873.93747275 442.64983093C873.93747275 426.58120874 860.91126804 413.55500321 844.84264585 413.55500321 828.77400882 413.55500321 815.74781812 426.58120874 815.74781812 442.64983093L815.74781812 592.16814985 815.74781812 891.20478765C815.74781812 882.60933173 822.71755649 875.63886579 831.31372515 875.63886579L132.74873358 875.63886579C141.34420352 875.63886579 148.31465546 882.60861899 148.31465546 891.20478765L148.31465546 192.63979608C148.31465546 201.23526602 141.34491626 208.20571796 132.74873358 208.20571796L431.78537141 208.20571796 581.30369031 208.20571796C597.37232734 208.20571796 610.39851804 195.17951242 610.39851804 179.11089023 610.39851804 163.04225321 597.37232734 150.0160625 581.30369031 150.0160625L431.78537141 150.0160625ZM921.41151804 257.70892267C938.02837421 241.0920665 938.02015423 214.28032492 921.44289663 197.7030665L873.84668228 150.10685297 826.25045392 102.5106246C809.74325641 86.0034271 782.80757092 85.97903085 766.24459775 102.54200321L710.24886779 158.53773398C698.8866246 169.89997717 698.8866246 188.32180329 710.24886779 199.68403165 721.61109616 211.04627485 740.03292227 211.04627485 751.39516546 199.68403165L807.39089624 143.68830088C801.21269672 149.8665004 791.30475882 149.85753967 785.10415625 143.65692227L832.70038462 191.25315063 880.29659897 238.84936499C874.15502923 232.70779608 874.15195993 222.67589944 880.26521953 216.562625L824.2694896 272.55836978C812.90724641 283.92059897 812.90724641 302.34242508 824.2694896 313.70466827 835.63173196 325.06689663 854.05355891 325.06689663 865.41578726 313.70466827L921.41151804 257.70892267Z" fill="#bfcbd9" p-id="1528"></path></svg>