<?xml version="1.0" standalone="no"?><!DOCTYPE svg PUBLIC "-//W3C//DTD SVG 1.1//EN" "http://www.w3.org/Graphics/SVG/1.1/DTD/svg11.dtd"><svg t="1607594398200" class="icon" viewBox="0 0 1024 1024" version="1.1" xmlns="http://www.w3.org/2000/svg" p-id="2223" xmlns:xlink="http://www.w3.org/1999/xlink" width="200" height="200"><defs><style type="text/css"></style></defs><path d="M775.0890666666667 519.6736c0.9749333333333333-2.9226666666666667 1.8762666666666665-5.991466666666667 2.5610666666666666-9.384533333333334l54.64426666666667-277.2597333333333c7.434666666666666-37.67893333333333-17.36-62.43946666666667-55.041066666666666-55.00373333333334l-277.22346666666664 54.6432a71.90506666666667 71.90506666666667 0 0 0-9.454933333333335 2.5621333333333336c-9.168000000000001 1.0101333333333333-18.1184 4.801066666666667-25.156266666666667 11.84L117.1658666666666 595.3578666666667c-16.384 16.386133333333333-16.384 42.949333333333335 0 59.299200000000006l238.496 238.53226666666666c16.350933333333334 16.3488 42.9152 16.3488 59.264 0l348.32426666666663-348.32426666666663c7.0389333333333335-7.0368 10.864-15.9872 11.838933333333333-25.191466666666667z m-153.06666666666666-131.41119999999998c-28.6912-28.7296-28.72853333333333-75.28853333333333 0-103.9808 28.730666666666664-28.730666666666664 75.28960000000001-28.730666666666664 104.01813333333332 0 28.7296 28.69333333333333 28.7296 75.28746666666666 0 103.9808-28.7296 28.7296-75.25226666666667 28.69333333333333-104.01813333333332 0z" fill="#bfcbd9" p-id="2224"></path></svg>